<?xml version="1.0" ?><svg xmlns="http://www.w3.org/2000/svg" xmlns:xlink="http://www.w3.org/1999/xlink" version="1.1" id="Layer_1" viewBox="0 0 1000 1000" style="enable-background:new 0 0 1000 1000;" xml:space="preserve"><style type="text/css">
	.st0{fill:#ADAAD4;}
	.st1{fill:#F6AEC3;}
	.st2{fill:#F5EA85;}
	.st3{fill:#FDD677;}
	.st4{fill:#32C0CE;}
	.st5{fill:#FDD770;}
	.st6{fill:#FFFFFF;}
	.st7{fill:#73CBCA;}
	.st8{fill:#BFE5EB;}
	.st9{fill:#F4E884;}
	.st10{fill:#A29B97;}
	.st11{fill:#424C5C;}
	.st12{fill:#7183BD;}
	.st13{fill:#E7DC9D;}
	.st14{fill:#FCD76B;}
	.st15{fill:#AFCBE8;}
	.st16{fill:#EF4865;}
	.st17{fill:#A8C9DC;}
	.st18{fill:#9C9E9C;}
	.st19{fill:#F6DE62;}
	.st20{fill:#F7B0C0;}
	.st21{fill:#21C1E2;}
	.st22{fill:#F6E883;}
	.st23{fill:#A2CBE3;}
	.st24{fill:#FBDA74;}
	.st25{fill:#EF4B67;}
	.st26{fill:#B5DCE6;}
	.st27{fill:#B2D0E8;}
	.st28{fill:#AECDE9;}
	.st29{fill:#E99286;}
	.st30{fill:#F9BA73;}
	.st31{fill:#F0877F;}
	.st32{fill:#BDC579;}
	.st33{fill:#FED56E;}
	.st34{fill:#C5DB86;}
	.st35{fill:#FCBF6B;}
	.st36{fill:#F8BC70;}
	.st37{fill:#FBBA6B;}
	.st38{fill:#FCD86F;}
	.st39{fill:#EF8E85;}
	.st40{fill:#E6BE65;}
	.st41{fill:#C9DB84;}
	.st42{fill:#FAD367;}
	.st43{fill:#F7BC74;}
	.st44{fill:#FBD872;}
	.st45{fill:#D1E08B;}
	.st46{fill:#EE8A7E;}
	.st47{fill:#F38B85;}
	.st48{fill:#FDCF6A;}
	.st49{fill:#CADB86;}
	.st50{fill:none;}
	.st51{fill:#010101;}
	.st52{fill:#010101;stroke:#010101;stroke-miterlimit:10;}
</style><path d="M229.03,566c-57.29-15.45-117.09-31.57-182.66-49.25c28.12-15.99,52.15-30.09,76.58-43.46  c119.5-65.4,238.96-130.87,358.96-195.33c8.35-4.49,22.93-4.86,31.34-0.63c143.56,72.12,286.6,145.27,429.73,218.25  c3.59,1.83,6.84,4.35,10.65,6.81c-2.28,1.8-3.37,3.12-4.76,3.69c-45.45,18.6-45.84,18.59-45.63,67.8  c0.3,70.74,1.43,141.48,1.64,212.22c0.03,8.19-3.51,16.4-5.39,24.6c-4.4-0.52-8.79-1.04-13.19-1.56c0-92.41,0-184.81,0-283.25  c-42.29,12.53-76.28,22.6-110.48,32.73c3.19,8.92,7.06,16.3,8.42,24.12c9.96,57.27-4.29,71.05-52.57,70.32  c-88.26-1.34-176.58,2.57-264.89,3.5c-6.52,0.07-13.11-6.19-19.66-9.51c7.08-4.06,14.09-11.54,21.25-11.68  c85.84-1.67,171.7-2.32,257.56-3.08c38.65-0.34,38.67-0.18,37.35-38.66c-0.14-4.17-0.73-8.33-1.51-16.85  c-9.7,0-19.37-0.1-29.03,0.01c-153.98,1.78-307.96,3.88-461.95,4.99c-19.15,0.14-26.01,6.7-24.19,25.06  c0.89,9.03,0.15,18.22,0.15,30.52c27.03,0,52.01-0.61,76.93,0.47c5.54,0.24,10.82,6.39,16.22,9.82c-5.46,3.33-10.69,8.98-16.43,9.56  c-20,2.01-40.16,2.75-60.28,3.07c-23.53,0.36-38.21-13.28-38.37-37.1C224.72,605.21,227.36,587.21,229.03,566z M488.34,557.18  c0-86.52,0-171.54,0-259.45C357.26,369.45,230.99,438.53,105.13,507.4C230.07,558.62,358.97,570.29,488.34,557.18z M514.54,300.52  c0,88.24,0,173.51,0,254.03c134.45,13.51,260.46-5.81,382.9-58.06C769.37,430.94,642.33,365.92,514.54,300.52z"/><path d="M392.42,667.98c-1.87-7.11-7.01-15.63-4.71-20.93c2.46-5.67,11.63-10.52,18.45-11.45c4.37-0.6,9.79,6.54,14.75,10.21  c-5.01,4.95-10.02,9.89-15.03,14.84C401.39,663.08,396.9,665.53,392.42,667.98z"/><path class="st3" d="M488.34,557.18c-129.37,13.12-258.27,1.44-383.21-49.78c125.86-68.86,252.13-137.95,383.21-209.67  C488.34,385.64,488.34,470.66,488.34,557.18z"/><path class="st3" d="M514.54,300.52c127.79,65.4,254.83,130.42,382.9,195.97c-122.44,52.25-248.44,71.57-382.9,58.06  C514.54,474.03,514.54,388.76,514.54,300.52z"/></svg>