<?xml version="1.0" ?><svg xmlns="http://www.w3.org/2000/svg" xmlns:xlink="http://www.w3.org/1999/xlink" version="1.1" id="Layer_1" viewBox="0 0 1000 1000" style="enable-background:new 0 0 1000 1000;" xml:space="preserve"><style type="text/css">
	.st0{fill:#ADAAD4;}
	.st1{fill:#F6AEC3;}
	.st2{fill:#F5EA85;}
	.st3{fill:#FDD677;}
	.st4{fill:#32C0CE;}
	.st5{fill:#FDD770;}
	.st6{fill:#FFFFFF;}
	.st7{fill:#73CBCA;}
	.st8{fill:#BFE5EB;}
	.st9{fill:#F4E884;}
	.st10{fill:#A29B97;}
	.st11{fill:#424C5C;}
	.st12{fill:#7183BD;}
	.st13{fill:#E7DC9D;}
	.st14{fill:#FCD76B;}
	.st15{fill:#AFCBE8;}
	.st16{fill:#EF4865;}
	.st17{fill:#A8C9DC;}
	.st18{fill:#9C9E9C;}
	.st19{fill:#F6DE62;}
	.st20{fill:#F7B0C0;}
	.st21{fill:#21C1E2;}
	.st22{fill:#F6E883;}
	.st23{fill:#A2CBE3;}
	.st24{fill:#FBDA74;}
	.st25{fill:#EF4B67;}
	.st26{fill:#B5DCE6;}
	.st27{fill:#B2D0E8;}
	.st28{fill:#AECDE9;}
	.st29{fill:#E99286;}
	.st30{fill:#F9BA73;}
	.st31{fill:#F0877F;}
	.st32{fill:#BDC579;}
	.st33{fill:#FED56E;}
	.st34{fill:#C5DB86;}
	.st35{fill:#FCBF6B;}
	.st36{fill:#F8BC70;}
	.st37{fill:#FBBA6B;}
	.st38{fill:#FCD86F;}
	.st39{fill:#EF8E85;}
	.st40{fill:#E6BE65;}
	.st41{fill:#C9DB84;}
	.st42{fill:#FAD367;}
	.st43{fill:#F7BC74;}
	.st44{fill:#FBD872;}
	.st45{fill:#D1E08B;}
	.st46{fill:#EE8A7E;}
	.st47{fill:#F38B85;}
	.st48{fill:#FDCF6A;}
	.st49{fill:#CADB86;}
	.st50{fill:none;}
	.st51{fill:#010101;}
	.st52{fill:#010101;stroke:#010101;stroke-miterlimit:10;}
</style><path d="M853.2,383.34c-6.97,82.91-28.35,162.49-59.14,239.76c-1.66,4.16-5.38,8.69-4.68,12.4c7.7,40.95-13.76,71.12-40.12,96.07  c-63.96,60.56-129.8,119.18-195.96,177.37c-25.29,22.24-54.02,14.94-79.42-0.96c-59.25-37.09-118.32-74.57-176.01-114.02  c-35.76-24.45-69-52.6-103.08-79.47c-18.3-14.42-23.02-49.48-17.36-71.55c6.5-25.3,23.7-39.58,42.21-53.29  c36.43-26.97,73.39-53.26,110.88-78.73c41.04-27.88,65.74-59.82,64.55-115.39c-1.49-70.09,9.93-140.48,16.32-210.69  c3.22-35.42,19.89-45.86,52.53-30.63c120.12,56.08,239.63,113.45,359.66,169.73C849.98,336.32,856,357.01,853.2,383.34z   M334.44,661.45c-19.07-13.56-37.03-26.09-54.71-38.98c-15.69-11.45-16.97-20.67-4.58-35.35c5.39-6.39,11.46-12.57,18.29-17.32  c26.55-18.49,54.54-35.07,80.02-54.9c18.84-14.67,33.95-13.4,54.33-2.67c89.34,47.04,179.53,92.49,269.65,138.02  c14.49,7.32,12.07,13.65,2.35,22.79c-40.12,37.72-80.41,75.28-119.73,113.82c-15.53,15.21-29.28,17.16-47.83,5.07  c-31.24-20.38-63.77-38.76-97.94-59.29c-15.5,16.21-30.55,31.94-46.88,49.02c38.06,24.49,75.39,47.62,111.67,72.29  c15.21,10.35,26.35,8.61,39.3-3.16c49.38-44.88,99.4-89.06,148.93-133.77c24.3-21.93,48.04-44.47,72.03-66.72  c-127-55.62-251.23-103.84-359.6-175.96c-36.15,27.07-71.39,53.23-106.39,79.71c-29.92,22.63-60.17,44.9-89.1,68.76  c-14.99,12.36-13.98,20.78,1.69,32.75c25.69,19.61,52.1,38.28,81.22,59.54C303.15,696.95,318.31,679.75,334.44,661.45z   M838.96,384.29c5.47-26.71-6.95-40.96-30.07-51.76c-115.32-53.88-230.03-109.06-345.24-163.18c-29.62-13.91-36.17-9.86-38.91,23.12  c-6.37,76.72-9.95,153.73-18.65,230.17c-3.32,29.17,6.51,43.19,29.6,57.1c95.68,57.64,199.09,98.85,300.67,143.97  c8.02,3.56,17.67,5.68,26.27,4.95c6.23-0.53,15.21-5.54,17.42-10.86C811.25,542.77,830.88,464.69,838.96,384.29z M776.66,648.91  c-2.83,2.07-4.43,3-5.76,4.24c-75.62,70.64-151.28,141.23-226.76,212.02c-16.23,15.22-32.09,15.59-50.54,3.31  c-45.26-30.11-91.52-58.73-136.7-88.96c-57.11-38.22-113.56-77.43-169.89-115.95c3.54,23.45,15.14,41.81,36.15,55.41  c17.32,11.22,32.05,26.39,49.2,37.92c69.78,46.93,139.79,93.53,210.29,139.36c19.97,12.98,42.9,18.65,63.07,0.65  c65.7-58.62,131.15-117.52,195.56-177.55C760.62,701.33,775.25,678.8,776.66,648.91z M346.9,670.33  c-15.33,17.74-30.24,35.01-45.42,52.57c7.57,5.57,13.58,10.5,20.07,14.68c16.74,10.78,34.04,29.89,50.46,29.24  c14.92-0.59,28.91-22.91,43.49-35.45c2.33-2,5.58-2.94,10.51-5.44C397.18,705.66,372.44,688.28,346.9,670.33z M449.91,655.64  c-42.58-34.5-59.2-32.58-84.77,9.55c11.92,8.44,23.93,16.94,35.27,24.97C417.32,678.37,433.43,667.14,449.91,655.64z M599.82,749.35  c-40.04-26.07-61.77-20.84-80.02,18.2c8.16,4.69,16.06,10.6,24.93,13.82c5.57,2.02,14.33,2.42,18.66-0.66  C575.88,771.8,586.86,760.77,599.82,749.35z M500.21,756.02c15.18-13.74,27.75-25.12,41.02-37.13  c-10.99-7.64-21.44-14.9-32.28-22.44c-16.2,10.96-31.86,21.56-49.82,33.7C475.48,740.45,489.41,749.22,500.21,756.02z   M317.63,631.76c13.38-12.57,25.94-24.36,38.9-36.53c-13.53-10.76-24.52-19.5-37.1-29.5c-13.5,12.45-26.52,24.45-41.17,37.95  C292.69,613.97,304.55,622.43,317.63,631.76z M446.63,721.78c17.1-11.4,32.96-21.97,50.41-33.61c-9.6-7.19-16.95-13.41-25.04-18.44  c-3.82-2.38-10.58-4.95-13.38-3.21c-15,9.35-29.18,20.04-45.79,31.79C425.82,707.33,436.24,714.57,446.63,721.78z M609.38,737.86  c13.34-12.6,25.63-24.2,38.26-36.12c-45.06-22.85-45.06-22.85-79.89,16.44c7.31,3.13,14.37,5.91,21.21,9.15  C595.86,730.59,602.54,734.31,609.38,737.86z M562.09,643.21c50.81,28.43,38.19,28.44,76.01-4.68  c-16.33-8.49-32.21-16.74-48.61-25.27C580.29,623.31,571.66,632.75,562.09,643.21z M556.05,656.19  c-12.93,12.14-23.46,22.02-34.73,32.6c10.02,6.97,20.46,14.25,31.7,22.07c13.46-11.89,26.1-23.06,39.95-35.29  C577.82,667.62,565.39,661.1,556.05,656.19z M531.83,583.26c-7.98,10.48-15.48,20.33-23.68,31.09c14.81,8.36,27.52,15.54,40.56,22.9  c9.65-10.31,18.32-19.56,28.54-30.48C561.33,598.53,547.28,591.26,531.83,583.26z M539.12,647.56  c-13.91-7.97-26.08-14.95-39.22-22.48c-9.03,9.59-17.59,18.68-27.12,28.8c13.12,9.08,24.04,16.64,33.59,23.26  C518.07,666.58,528.01,657.6,539.12,647.56z M418.73,618.36c8.08,4.97,14.66,8.89,21.1,13.01c6.95,4.44,13.79,9.07,21.71,14.31  c8.8-9.38,16.84-17.93,25.08-26.7C447.69,591.11,447.69,591.11,418.73,618.36z M456.56,584.25c13.88,8.08,26.4,15.36,39.83,23.18  c8.03-10.74,15.09-20.17,22.19-29.66C483.18,553.73,483.18,553.73,456.56,584.25z M657.66,691.41c9.94-9.41,19.81-18.76,30.05-28.45  c-36.11-20.13-39.05-19.62-66.22,10.92C633.79,679.84,645.83,685.67,657.66,691.41z M368.76,603.25  c-13.58,12.6-26.01,24.15-39.56,36.73c8.84,6.02,15.58,10.61,21.79,14.85c14.24-12.56,27.13-23.93,40.92-36.09  C384.33,613.66,377.44,609.06,368.76,603.25z M367.28,586.02c9.03-8.75,16.76-16.25,24.5-23.75c-27.28-27.31-28.19-27.35-57.67-2.64  c4.37,3.74,8.53,7.55,12.94,11.04C353.07,575.45,359.3,579.99,367.28,586.02z M435.12,532.45c-7.21,8.67-13.91,16.72-20.67,24.84  c30.9,22.83,32.51,22.56,52.19-8.01C456.46,543.85,446.38,538.47,435.12,532.45z M433.85,586.63c-11.4-7.04-20.3-12.53-26.19-16.17  c-9.61,9.13-17.63,16.74-26.34,25.01c7.82,4.77,15.88,9.69,24.34,14.85C414.48,602.91,422.76,595.95,433.85,586.63z M402.06,551.1  c7.43-9.11,13.29-16.28,19.31-23.66c-22.96-14.55-24.23-14.36-42.48,5.31C385.95,538.34,392.93,543.87,402.06,551.1z"/><path class="st10" d="M334.44,661.45c-16.13,18.3-31.29,35.49-47.29,53.64c-29.12-21.27-55.53-39.93-81.22-59.54  c-15.67-11.97-16.68-20.39-1.69-32.75c28.92-23.86,59.18-46.12,89.1-68.76c35-26.48,70.24-52.65,106.39-79.71  c108.37,72.13,232.6,120.34,359.6,175.96c-23.98,22.25-47.73,44.79-72.03,66.72c-49.53,44.72-99.55,88.89-148.93,133.77  c-12.95,11.77-24.08,13.5-39.3,3.16c-36.28-24.67-73.61-47.8-111.67-72.29c16.33-17.08,31.39-32.82,46.88-49.02  c34.17,20.53,66.7,38.91,97.94,59.29c18.55,12.1,32.3,10.15,47.83-5.07c39.33-38.54,79.62-76.1,119.73-113.82  c9.72-9.14,12.14-15.47-2.35-22.79c-90.13-45.54-180.31-90.98-269.65-138.02c-20.39-10.73-35.49-12-54.33,2.67  c-25.47,19.83-53.46,36.41-80.02,54.9c-6.82,4.75-12.89,10.93-18.29,17.32c-12.39,14.68-11.12,23.91,4.58,35.35  C297.41,635.37,315.37,647.89,334.44,661.45z"/><path class="st10" d="M838.96,384.29c-8.09,80.4-27.71,158.48-58.91,233.5c-2.21,5.32-11.19,10.33-17.42,10.86  c-8.59,0.73-18.25-1.39-26.27-4.95c-101.58-45.12-204.99-86.33-300.67-143.97c-23.08-13.91-32.92-27.93-29.6-57.1  c8.69-76.44,12.28-153.45,18.65-230.17c2.74-32.97,9.29-37.03,38.91-23.12c115.21,54.11,229.92,109.3,345.24,163.18  C832.01,343.33,844.43,357.58,838.96,384.29z M428.58,364.71c0.41,0.04,0.83,0.09,1.24,0.13c0,22.04,0.87,44.13-0.31,66.1  c-0.77,14.22,3.85,22.83,16.55,29.37c51.23,26.37,101.58,54.48,153.25,79.95c45.82,22.59,92.9,42.61,139.5,63.61  c13.12,5.91,24.13,4.46,29.95-10.64c25.46-66.14,45.08-133.62,47.54-205.11c0.66-19.11-7.44-31.59-25.18-39.44  c-20.69-9.15-40.62-20.04-60.89-30.15c-81.07-40.45-161.92-81.38-243.34-121.11c-32.23-15.72-46.28-7.43-49.16,27.75  C433.92,271.62,431.56,318.19,428.58,364.71z"/><path class="st11" d="M776.66,648.91c-1.41,29.89-16.04,52.42-35.39,70.45c-64.4,60.03-129.86,118.93-195.56,177.55  c-20.18,18-43.1,12.33-63.07-0.65c-70.5-45.83-140.51-92.43-210.29-139.36c-17.15-11.53-31.88-26.7-49.2-37.92  c-21-13.6-32.61-31.96-36.15-55.41c56.33,38.51,112.77,77.73,169.89,115.95c45.18,30.23,91.44,58.85,136.7,88.96  c18.45,12.28,34.31,11.91,50.54-3.31c75.48-70.79,151.14-141.38,226.76-212.02C772.23,651.91,773.83,650.97,776.66,648.91z"/><path class="st12" d="M346.9,670.33c25.54,17.95,50.28,35.33,79.11,55.6c-4.93,2.5-8.18,3.44-10.51,5.44  c-14.58,12.54-28.57,34.86-43.49,35.45c-16.42,0.65-33.72-18.46-50.46-29.24c-6.49-4.18-12.5-9.11-20.07-14.68  C316.66,705.34,331.57,688.07,346.9,670.33z"/><path class="st4" d="M449.91,655.64c-16.49,11.5-32.59,22.73-49.5,34.52c-11.34-8.03-23.34-16.53-35.27-24.97  C390.71,623.06,407.33,621.14,449.91,655.64z"/><path class="st4" d="M599.82,749.35c-12.96,11.42-23.94,22.45-36.43,31.35c-4.33,3.08-13.09,2.68-18.66,0.66  c-8.87-3.22-16.77-9.13-24.93-13.82C538.05,728.51,559.78,723.28,599.82,749.35z"/><path class="st4" d="M500.21,756.02c-10.8-6.8-24.73-15.57-41.09-25.86c17.95-12.15,33.62-22.74,49.82-33.7  c10.84,7.53,21.29,14.8,32.28,22.44C527.96,730.9,515.39,742.28,500.21,756.02z"/><path class="st4" d="M317.63,631.76c-13.08-9.33-24.94-17.79-39.37-28.08c14.65-13.5,27.67-25.5,41.17-37.95  c12.58,10,23.57,18.74,37.1,29.5C343.57,607.4,331.02,619.19,317.63,631.76z"/><path class="st4" d="M446.63,721.78c-10.39-7.22-20.81-14.45-33.8-23.47c16.61-11.75,30.79-22.43,45.79-31.79  c2.79-1.74,9.56,0.83,13.38,3.21c8.09,5.04,15.44,11.26,25.04,18.44C479.6,699.81,463.74,710.38,446.63,721.78z"/><path class="st4" d="M609.38,737.86c-6.84-3.55-13.52-7.27-20.42-10.54c-6.84-3.24-13.9-6.02-21.21-9.15  c34.83-39.28,34.83-39.28,79.89-16.44C635.01,713.67,622.72,725.27,609.38,737.86z"/><path class="st4" d="M562.09,643.21c9.57-10.46,18.21-19.9,27.4-29.95c16.4,8.52,32.28,16.78,48.61,25.27  C600.28,671.65,612.9,671.64,562.09,643.21z"/><path class="st4" d="M556.05,656.19c9.34,4.9,21.76,11.43,36.91,19.38c-13.85,12.23-26.48,23.39-39.95,35.29  c-11.24-7.82-21.68-15.1-31.7-22.07C532.59,678.22,543.13,668.33,556.05,656.19z"/><path class="st4" d="M531.83,583.26c15.45,8,29.5,15.27,45.42,23.51c-10.22,10.91-18.89,20.17-28.54,30.48  c-13.04-7.36-25.74-14.54-40.56-22.9C516.35,603.59,523.85,593.74,531.83,583.26z"/><path class="st4" d="M539.12,647.56c-11.11,10.04-21.05,19.02-32.75,29.58c-9.56-6.62-20.47-14.18-33.59-23.26  c9.53-10.12,18.08-19.21,27.12-28.8C513.04,632.61,525.2,639.59,539.12,647.56z"/><path class="st4" d="M418.73,618.36c28.96-27.25,28.96-27.25,67.89,0.62c-8.23,8.77-16.27,17.32-25.08,26.7  c-7.93-5.23-14.76-9.86-21.71-14.31C433.38,627.25,426.81,623.33,418.73,618.36z"/><path class="st4" d="M456.56,584.25c26.62-30.51,26.62-30.51,62.02-6.48c-7.1,9.49-14.15,18.92-22.19,29.66  C482.96,599.61,470.45,592.33,456.56,584.25z"/><path class="st4" d="M657.66,691.41c-11.83-5.73-23.87-11.57-36.17-17.53c27.17-30.54,30.11-31.05,66.22-10.92  C677.47,672.65,667.6,681.99,657.66,691.41z"/><path class="st4" d="M370.48,598c8.72,6.63,15.65,11.88,23.26,17.67c-13.86,13.88-26.82,26.86-41.12,41.19  c-6.24-4.83-13.01-10.07-21.89-16.94C344.34,625.56,356.84,612.38,370.48,598z"/><path class="st4" d="M367.57,587.05c-8.52-6.44-15.17-11.29-21.62-16.39c-4.71-3.73-9.16-7.79-13.82-11.8  c31.5-26.4,32.47-26.36,61.62,2.82C385.48,569.69,377.21,577.7,367.57,587.05z"/><path class="st4" d="M435.12,532.45c11.26,6.01,21.34,11.4,31.52,16.83c-19.68,30.57-21.28,30.84-52.19,8.01  C421.21,549.17,427.9,541.13,435.12,532.45z"/><path class="st4" d="M433.85,586.63c-11.1,9.33-19.37,16.28-28.19,23.69c-8.46-5.16-16.52-10.07-24.34-14.85  c8.71-8.27,16.73-15.88,26.34-25.01C413.56,574.09,422.45,579.59,433.85,586.63z"/><path class="st4" d="M402.06,551.1c-9.12-7.23-16.11-12.76-23.16-18.35c18.24-19.67,19.52-19.86,42.48-5.31  C415.34,534.82,409.49,541.99,402.06,551.1z"/><path d="M428.58,364.71c2.98-46.52,5.34-93.09,9.14-139.54c2.88-35.18,16.93-43.47,49.16-27.75  c81.43,39.73,162.27,80.65,243.34,121.11c20.27,10.11,40.19,21,60.89,30.15c17.74,7.85,25.83,20.34,25.18,39.44  c-2.46,71.49-22.08,138.97-47.54,205.11c-5.81,15.1-16.82,16.55-29.95,10.64c-46.6-21-93.68-41.02-139.5-63.61  c-51.66-25.47-102.02-53.58-153.25-79.95c-12.7-6.54-17.32-15.14-16.55-29.37c1.19-21.97,0.31-44.06,0.31-66.1  C429.41,364.8,429,364.75,428.58,364.71z M444.58,354.25c0.5,0.03,1,0.07,1.51,0.1c0,13.6,2.34,27.71-0.44,40.71  c-8.01,37.39,8.31,56.37,41.56,71.63c81.65,37.47,161.77,78.26,242.32,118.09c16.69,8.25,27.16,7.09,32-13.39  c12.31-52.13,27.74-103.63,37.64-156.18c7.94-42.17,4.87-43.2-33.81-62.05c-3.49-1.7-6.93-3.48-10.4-5.21  c-90.77-45.41-181.42-91.05-272.38-136.06c-24.17-11.96-28.85-9.08-30.85,18.31C448.7,271.5,446.9,312.89,444.58,354.25z"/><path class="st5" d="M444.58,354.25c2.32-41.36,4.13-82.75,7.14-124.06c2-27.39,6.68-30.27,30.85-18.31  c90.96,45.02,181.61,90.66,272.38,136.06c3.47,1.74,6.92,3.51,10.4,5.21c38.68,18.85,41.75,19.88,33.81,62.05  c-9.9,52.56-25.33,104.06-37.64,156.18c-4.84,20.48-15.31,21.65-32,13.39c-80.55-39.83-160.68-80.63-242.32-118.09  c-33.25-15.26-49.57-34.24-41.56-71.63c2.79-13,0.44-27.11,0.44-40.71C445.58,354.31,445.08,354.28,444.58,354.25z M639.26,463.3  c-0.42-2.18-0.45-2.84-0.68-3.42c-14.97-36.91-29.87-73.86-45.18-110.63c-0.86-2.06-6.41-4.45-7.54-3.63  c-2.5,1.83-5.71,6.43-4.92,8.46c14.42,37.11,29.28,74.05,44.52,110.83c0.97,2.33,5.92,4.18,8.94,4.06  C636.31,468.91,638.07,464.79,639.26,463.3z M574.75,433.2c1.78-0.98,3.55-1.96,5.33-2.94c-2.76-13.54-5.2-27.16-8.55-40.55  c-0.71-2.85-4.8-4.86-7.33-7.25c-2.02,3.48-6.04,7.17-5.69,10.39c1.17,10.89,3.24,21.8,6.4,32.28  C565.92,428.5,571.34,430.54,574.75,433.2z M661.79,410.63c1.15-15.03,2.67-30.26-18.31-40.9  C645.81,388.53,645.46,402.97,661.79,410.63z"/><path d="M639.26,463.3c-1.18,1.49-2.95,5.61-4.86,5.68c-3.02,0.11-7.97-1.73-8.94-4.06c-15.24-36.78-30.1-73.72-44.52-110.83  c-0.79-2.03,2.42-6.64,4.92-8.46c1.13-0.83,6.68,1.57,7.54,3.63c15.31,36.77,30.21,73.72,45.18,110.63  C638.81,460.46,638.83,461.12,639.26,463.3z"/><path d="M574.75,433.2c-3.41-2.65-8.83-4.7-9.84-8.08c-3.15-10.48-5.23-21.39-6.4-32.28c-0.35-3.22,3.67-6.92,5.69-10.39  c2.53,2.4,6.61,4.4,7.33,7.25c3.36,13.39,5.79,27.01,8.55,40.55C578.3,431.24,576.53,432.22,574.75,433.2z"/><path d="M661.79,410.63c-16.32-7.66-15.98-22.1-18.31-40.9C664.46,380.37,662.93,395.61,661.79,410.63z"/></svg>