<?xml version="1.0" ?><svg id="Layer_1" style="enable-background:new 0 0 64 64;" version="1.1" viewBox="0 0 64 64" xml:space="preserve" xmlns="http://www.w3.org/2000/svg" xmlns:xlink="http://www.w3.org/1999/xlink"><style type="text/css">
	.st0{fill:#B31616;stroke:#231F20;stroke-miterlimit:10;}
	.st1{fill:#009966;stroke:#231F20;stroke-miterlimit:10;}
	.st2{fill:#12AF76;stroke:#231F20;stroke-miterlimit:10;}
	.st3{fill:#EF1D1D;stroke:#231F20;stroke-miterlimit:10;}
	.st4{opacity:0.5;fill:none;stroke:#FFFFFF;stroke-width:2;stroke-linecap:round;stroke-miterlimit:10;}
</style><path class="st0" d="M33.6,10h-3.1v0.5c-4.6,1.4-7.9,5.6-7.9,10.6c0,4,4.6,14.5,7.9,21.4V46h3.1c0.8,0,1.7-0.4,2.1-1.3  c3.2-6.6,9-19.2,9-23.6C44.6,15,39.7,10,33.6,10z M33.6,26.6c-3.1,0-5.5-2.5-5.5-5.5c0-3.1,2.5-5.5,5.5-5.5s5.5,2.5,5.5,5.5  C39.1,24.1,36.6,26.6,33.6,26.6z"/><path class="st1" d="M33.6,48.5L33.6,48.5L33.6,48.5h-3.1V54h3.1l0,0h0c1.5,0,2.8-1.2,2.8-2.8C36.3,49.7,35.1,48.5,33.6,48.5z"/><circle class="st2" cx="30.4" cy="51.2" r="2.8"/><path class="st3" d="M30.4,10c-6.1,0-11.1,5-11.1,11.1c0,4.4,5.8,17,9,23.6c0.4,0.9,1.2,1.3,2.1,1.3c0.8,0,1.7-0.4,2.1-1.3  c3.2-6.6,9-19.2,9-23.6C41.5,15,36.5,10,30.4,10z M30.4,26.6c-3.1,0-5.5-2.5-5.5-5.5c0-3.1,2.5-5.5,5.5-5.5S36,18,36,21.1  C36,24.1,33.5,26.6,30.4,26.6z"/><path class="st4" d="M24.2,29c-1.4-3.8-2.2-6.5-2.2-7.9c0-2.3,0.9-4.5,2.3-6.1"/><path class="st4" d="M26.3,34c-0.3-0.7-0.6-1.4-0.8-2"/></svg>