<?xml version="1.0" ?><svg height="512" id="svg8" version="1.1" viewBox="0 0 135.46666 135.46667" width="512" xmlns="http://www.w3.org/2000/svg" xmlns:cc="http://creativecommons.org/ns#" xmlns:dc="http://purl.org/dc/elements/1.1/" xmlns:inkscape="http://www.inkscape.org/namespaces/inkscape" xmlns:rdf="http://www.w3.org/1999/02/22-rdf-syntax-ns#" xmlns:sodipodi="http://sodipodi.sourceforge.net/DTD/sodipodi-0.dtd" xmlns:svg="http://www.w3.org/2000/svg"><defs id="defs2"/><g id="layer1"><circle cx="67.73333" cy="67.73333" id="path850" r="67.20417" style="fill:#333333;fill-opacity:1;stroke:none;stroke-width:1.05833;stroke-linecap:round;stroke-linejoin:round"/><path d="m 82.64465,83.282145 c 0,0 42.6777,-2.601602 21.89682,-47.30127 1.82905,-5.13511 1.31092,-12.463218 -0.57881,-16.631008 -3.994446,0.301323 -5.538026,-0.754076 -17.219871,6.507793 -6.523064,-1.365018 -14.470117,-3.925284 -31.328389,0 -2.666926,-1.815778 -10.323368,-6.852688 -16.858276,-6.363172 -1.484534,3.769566 -2.784908,12.112925 -0.88561,16.486387 -1.133386,1.413342 -21.977737,38.711431 22.157198,47.30127 -2.760035,3.288653 -3.145856,4.496385 -4.275426,8.589842 -2.487302,0.87859 -11.214784,3.24268 -15.091487,-1.699614 -3.876706,-4.942314 -6.937115,-12.158961 -15.240445,-9.256047 0.367326,2.163881 2.015078,2.260746 4.556751,4.349561 2.54167,2.088811 3.786622,4.744662 4.776075,7.44041 0.989461,2.69576 5.332303,10.379423 20.922126,7.734073 -0.106581,3.6292 0.553692,13.92317 0.553692,13.92317 0,0 6.684867,1.75326 15.16901,1.75326 8.484143,0 15.169011,-1.75326 15.169011,-1.75326 0,0 1.218125,-5.92767 -0.05321,-22.491553 -0.277065,-3.609938 -1.818378,-6.298497 -3.669194,-8.589842 z" id="path922" style="fill:#ffffff;stroke:none;stroke-width:0.264582px;stroke-linecap:butt;stroke-linejoin:miter;stroke-opacity:1"/></g></svg>